<svg version="1.1" id="Layer_1" xmlns="http://www.w3.org/2000/svg" xmlns:xlink="http://www.w3.org/1999/xlink" x="0px" y="0px" width="100%" viewBox="0 0 896 1152" enable-background="new 0 0 896 1152" xml:space="preserve" style="clip-path: polygon(11% 12%, 87% 12%, 87% 88%, 11% 88%);">
<path fill="#171717" opacity="1.000000" stroke="none" d="
M548.000000,1153.000000 
	C365.333344,1153.000000 183.166672,1153.000000 1.000000,1153.000000 
	C1.000000,769.000000 1.000000,385.000000 1.000000,1.000000 
	C299.666656,1.000000 598.333313,1.000000 897.000000,1.000000 
	C897.000000,385.000000 897.000000,769.000000 897.000000,1153.000000 
	C780.833313,1153.000000 664.666687,1153.000000 548.000000,1153.000000 
M239.530655,858.201721 
	C308.467316,789.881409 377.403992,721.561096 446.820465,652.765320 
	C514.872620,722.156006 582.421631,791.033630 649.970642,859.911194 
	C650.336487,859.609253 650.702393,859.307312 651.068237,859.005371 
	C651.068237,679.450684 651.068237,499.895996 651.068237,320.296478 
	C512.170105,320.296478 373.732391,320.296478 235.072983,320.296478 
	C234.944046,321.309265 234.753555,322.106903 234.753708,322.904449 
	C234.760773,361.069336 234.748474,399.234344 234.913528,437.398621 
	C234.921677,439.280701 236.057053,441.579376 237.404846,442.968872 
	C250.514679,456.484070 263.680634,469.948303 277.023376,483.233459 
	C316.934662,522.972534 356.939514,562.617615 396.887024,602.320312 
	C401.099304,606.506775 405.173737,610.831909 409.487061,615.272827 
	C368.527008,654.890686 328.058380,694.033264 286.587036,734.145691 
	C286.587036,720.014526 286.589264,707.526428 286.586639,695.038391 
	C286.576752,648.040588 286.597382,601.042603 286.461853,554.045166 
	C286.454865,551.628479 285.846130,548.444946 284.263275,546.922485 
	C271.054871,534.217590 257.580109,521.788391 244.114319,509.353302 
	C241.428131,506.872772 238.436905,504.722504 235.247131,502.145905 
	C235.247131,622.324097 235.247131,741.650146 235.247131,861.917297 
	C237.045975,860.384888 238.020386,859.554810 239.530655,858.201721 
M841.884583,1120.209351 
	C845.423950,1108.425781 853.570618,1101.090820 865.227295,1096.884766 
	C852.725220,1092.930664 845.214722,1084.700562 840.898987,1072.806641 
	C836.893738,1085.119385 828.916077,1092.873657 815.979492,1096.694214 
	C817.823059,1097.716064 818.453430,1098.198975 819.165588,1098.440308 
	C829.105835,1101.810059 835.895020,1108.333984 839.356018,1118.309204 
	C839.675720,1119.230591 840.674561,1119.916504 841.884583,1120.209351 
z"></path>
<path fill="#F8F9F8" opacity="1.000000" stroke="none" d="
M239.262726,858.463257 
	C238.020386,859.554810 237.045975,860.384888 235.247131,861.917297 
	C235.247131,741.650146 235.247131,622.324097 235.247131,502.145905 
	C238.436905,504.722504 241.428131,506.872772 244.114319,509.353302 
	C257.580109,521.788391 271.054871,534.217590 284.263275,546.922485 
	C285.846130,548.444946 286.454865,551.628479 286.461853,554.045166 
	C286.597382,601.042603 286.576752,648.040588 286.586639,695.038391 
	C286.589264,707.526428 286.587036,720.014526 286.587036,734.145691 
	C328.058380,694.033264 368.527008,654.890686 409.487061,615.272827 
	C405.173737,610.831909 401.099304,606.506775 396.887024,602.320312 
	C356.939514,562.617615 316.934662,522.972534 277.023376,483.233459 
	C263.680634,469.948303 250.514679,456.484070 237.404846,442.968872 
	C236.057053,441.579376 234.921677,439.280701 234.913528,437.398621 
	C234.748474,399.234344 234.760773,361.069336 234.753708,322.904449 
	C234.753555,322.106903 234.944046,321.309265 235.072983,320.296478 
	C373.732391,320.296478 512.170105,320.296478 651.068237,320.296478 
	C651.068237,499.895996 651.068237,679.450684 651.068237,859.005371 
	C650.702393,859.307312 650.336487,859.609253 649.970642,859.911194 
	C582.421631,791.033630 514.872620,722.156006 446.820465,652.765320 
	C377.403992,721.561096 308.467316,789.881409 239.262726,858.463257 
M322.500214,373.614410 
	C310.708588,373.614410 298.916962,373.614410 286.761078,373.614410 
	C286.641754,375.476227 286.454865,377.086334 286.448547,378.697144 
	C286.398407,391.528809 286.195312,404.365204 286.512024,417.188477 
	C286.576416,419.795563 288.008057,423.001617 289.884277,424.826538 
	C300.511780,435.163666 311.703339,444.923859 322.266876,455.323364 
	C360.146210,492.614716 397.864197,530.070007 435.599640,567.507324 
	C439.233643,571.112610 442.564819,575.023193 446.143860,578.908569 
	C447.268158,577.875061 448.142365,577.134521 448.945770,576.323730 
	C463.606445,561.529175 478.210052,546.677856 492.922241,531.934753 
	C527.410339,497.374268 561.974792,462.889862 596.391663,428.258759 
	C598.069458,426.570496 599.531677,423.792603 599.572205,421.495300 
	C599.827820,407.002319 599.501343,392.499542 599.715759,378.005157 
	C599.777588,373.822479 598.187927,373.106476 594.466553,373.115906 
	C504.144623,373.345062 413.822388,373.469604 322.500214,373.614410 
M551.545227,684.956726 
	C567.292969,701.318115 583.040710,717.679565 599.500854,734.781189 
	C599.500854,656.070007 599.500854,578.727051 599.500854,501.384033 
	C598.790283,500.804291 598.079773,500.224548 597.369202,499.644836 
	C559.408325,538.223328 521.447449,576.801880 483.195557,615.676208 
	C506.144806,638.935608 528.598328,661.692566 551.545227,684.956726 
z"></path>
<path fill="#888888" opacity="1.000000" stroke="none" d="
M841.621338,1120.460449 
	C840.674561,1119.916504 839.675720,1119.230591 839.356018,1118.309204 
	C835.895020,1108.333984 829.105835,1101.810059 819.165588,1098.440308 
	C818.453430,1098.198975 817.823059,1097.716064 815.979492,1096.694214 
	C828.916077,1092.873657 836.893738,1085.119385 840.898987,1072.806641 
	C845.214722,1084.700562 852.725220,1092.930664 865.227295,1096.884766 
	C853.570618,1101.090820 845.423950,1108.425781 841.621338,1120.460449 
z"></path>
<path fill="#181717" opacity="1.000000" stroke="none" d="
M323.000214,373.613708 
	C413.822388,373.469604 504.144623,373.345062 594.466553,373.115906 
	C598.187927,373.106476 599.777588,373.822479 599.715759,378.005157 
	C599.501343,392.499542 599.827820,407.002319 599.572205,421.495300 
	C599.531677,423.792603 598.069458,426.570496 596.391663,428.258759 
	C561.974792,462.889862 527.410339,497.374268 492.922241,531.934753 
	C478.210052,546.677856 463.606445,561.529175 448.945770,576.323730 
	C448.142365,577.134521 447.268158,577.875061 446.143860,578.908569 
	C442.564819,575.023193 439.233643,571.112610 435.599640,567.507324 
	C397.864197,530.070007 360.146210,492.614716 322.266876,455.323364 
	C311.703339,444.923859 300.511780,435.163666 289.884277,424.826538 
	C288.008057,423.001617 286.576416,419.795563 286.512024,417.188477 
	C286.195312,404.365204 286.398407,391.528809 286.448547,378.697144 
	C286.454865,377.086334 286.641754,375.476227 286.761078,373.614410 
	C298.916962,373.614410 310.708588,373.614410 323.000214,373.613708 
z"></path>
<path fill="#191918" opacity="1.000000" stroke="none" d="
M551.298584,684.703125 
	C528.598328,661.692566 506.144806,638.935608 483.195557,615.676208 
	C521.447449,576.801880 559.408325,538.223328 597.369202,499.644836 
	C598.079773,500.224548 598.790283,500.804291 599.500854,501.384033 
	C599.500854,578.727051 599.500854,656.070007 599.500854,734.781189 
	C583.040710,717.679565 567.292969,701.318115 551.298584,684.703125 
z"></path>
</svg>